<?xml version="1.0" encoding="utf-8"?>
<!-- Generator: Adobe Illustrator 18.1.1, SVG Export Plug-In . SVG Version: 6.00 Build 0)  -->
<svg version="1.1" id="Layer_1" xmlns="http://www.w3.org/2000/svg" xmlns:xlink="http://www.w3.org/1999/xlink" x="0px" y="0px"
	 width="277.8px" height="311.8px" viewBox="0 0 277.8 311.8" enable-background="new 0 0 277.8 311.8" xml:space="preserve">
<circle cx="58.6" cy="6.3" r="5.3"/>
<circle cx="69.3" cy="6.3" r="5.3"/>
<circle cx="79.9" cy="6.3" r="5.3"/>
<circle cx="90.6" cy="6.3" r="5.3"/>
<circle cx="101.3" cy="6.3" r="5.3"/>
<circle cx="37.3" cy="17" r="5.3"/>
<circle cx="48" cy="17" r="5.3"/>
<circle cx="58.6" cy="17" r="5.3"/>
<circle cx="69.3" cy="17" r="5.3"/>
<circle cx="79.9" cy="17" r="5.3"/>
<circle cx="90.6" cy="17" r="5.3"/>
<circle cx="101.3" cy="17" r="5.3"/>
<circle cx="111.9" cy="17" r="5.3"/>
<circle cx="26.6" cy="27.6" r="5.3"/>
<circle cx="101.3" cy="27.6" r="5.3"/>
<circle cx="111.9" cy="27.6" r="5.3"/>
<circle cx="122.6" cy="27.6" r="5.3"/>
<circle cx="122.6" cy="38.3" r="5.3"/>
<circle cx="133.2" cy="38.3" r="5.3"/>
<circle cx="5.3" cy="49" r="5.3"/>
<circle cx="122.6" cy="49" r="5.3"/>
<circle cx="133.2" cy="49" r="5.3"/>
<circle cx="143.9" cy="49" r="5.3"/>
<circle cx="5.3" cy="59.6" r="5.3"/>
<circle cx="133.2" cy="59.6" r="5.3"/>
<circle cx="143.9" cy="59.6" r="5.3"/>
<circle cx="5.3" cy="70.3" r="5.3"/>
<circle cx="133.2" cy="70.3" r="5.3"/>
<circle cx="143.9" cy="70.3" r="5.3"/>
<circle cx="154.6" cy="70.3" r="5.3"/>
<circle cx="5.3" cy="80.9" r="5.3"/>
<circle cx="37.3" cy="80.9" r="5.3"/>
<circle cx="48" cy="80.9" r="5.3"/>
<circle cx="58.6" cy="80.9" r="5.3"/>
<circle cx="101.3" cy="80.9" r="5.3"/>
<circle cx="111.9" cy="80.9" r="5.3"/>
<circle cx="122.6" cy="80.9" r="5.3"/>
<circle cx="133.2" cy="80.9" r="5.3"/>
<circle cx="143.9" cy="80.9" r="5.3"/>
<circle cx="154.6" cy="80.9" r="5.3"/>
<circle cx="5.3" cy="91.6" r="5.3"/>
<circle cx="58.6" cy="91.6" r="5.3"/>
<circle cx="111.9" cy="91.6" r="5.3"/>
<circle cx="122.6" cy="91.6" r="5.3"/>
<circle cx="133.2" cy="91.6" r="5.3"/>
<circle cx="143.9" cy="91.6" r="5.3"/>
<circle cx="154.6" cy="91.6" r="5.3"/>
<circle cx="26.6" cy="102.3" r="5.3"/>
<circle cx="37.3" cy="102.3" r="5.3"/>
<circle cx="48" cy="102.3" r="5.3"/>
<circle cx="58.6" cy="102.3" r="5.3"/>
<circle cx="69.3" cy="102.3" r="5.3"/>
<circle cx="90.6" cy="102.3" r="5.3"/>
<circle cx="101.3" cy="102.3" r="5.3"/>
<circle cx="111.9" cy="102.3" r="5.3"/>
<circle cx="133.2" cy="102.3" r="5.3"/>
<circle cx="143.9" cy="102.3" r="5.3"/>
<circle cx="154.6" cy="102.3" r="5.3"/>
<circle cx="48" cy="112.9" r="5.3"/>
<circle cx="58.6" cy="112.9" r="5.3"/>
<circle cx="90.6" cy="112.9" r="5.3"/>
<circle cx="101.3" cy="112.9" r="5.3"/>
<circle cx="111.9" cy="112.9" r="5.3"/>
<circle cx="122.6" cy="112.9" r="5.3"/>
<circle cx="133.2" cy="112.9" r="5.3"/>
<circle cx="143.9" cy="112.9" r="5.3"/>
<circle cx="154.6" cy="112.9" r="5.3"/>
<circle cx="90.6" cy="123.6" r="5.3"/>
<circle cx="143.9" cy="123.6" r="5.3"/>
<circle cx="154.6" cy="123.6" r="5.3"/>
<circle cx="101.3" cy="134.2" r="5.3"/>
<circle cx="154.6" cy="134.2" r="5.3"/>
<circle cx="90.6" cy="144.9" r="5.3"/>
<circle cx="143.9" cy="144.9" r="5.3"/>
<circle cx="154.6" cy="144.9" r="5.3"/>
<circle cx="79.9" cy="155.6" r="5.3"/>
<circle cx="90.6" cy="155.6" r="5.3"/>
<circle cx="101.3" cy="155.6" r="5.3"/>
<circle cx="154.6" cy="155.6" r="5.3"/>
<circle cx="58.6" cy="166.2" r="5.3"/>
<circle cx="101.3" cy="166.2" r="5.3"/>
<circle cx="111.9" cy="166.2" r="5.3"/>
<circle cx="122.6" cy="166.2" r="5.3"/>
<circle cx="143.9" cy="166.2" r="5.3"/>
<circle cx="58.6" cy="176.9" r="5.3"/>
<circle cx="69.3" cy="176.9" r="5.3"/>
<circle cx="101.3" cy="176.9" r="5.3"/>
<circle cx="111.9" cy="176.9" r="5.3"/>
<circle cx="122.6" cy="176.9" r="5.3"/>
<circle cx="133.2" cy="176.9" r="5.3"/>
<circle cx="143.9" cy="176.9" r="5.3"/>
<circle cx="26.6" cy="187.5" r="5.3"/>
<circle cx="79.9" cy="187.5" r="5.3"/>
<circle cx="90.6" cy="187.5" r="5.3"/>
<circle cx="101.3" cy="187.5" r="5.3"/>
<circle cx="122.6" cy="187.5" r="5.3"/>
<circle cx="133.2" cy="187.5" r="5.3"/>
<circle cx="48" cy="198.2" r="5.3"/>
<circle cx="58.6" cy="198.2" r="5.3"/>
<circle cx="79.9" cy="198.2" r="5.3"/>
<circle cx="90.6" cy="198.2" r="5.3"/>
<circle cx="101.3" cy="198.2" r="5.3"/>
<circle cx="111.9" cy="198.2" r="5.3"/>
<circle cx="122.6" cy="198.2" r="5.3"/>
<circle cx="133.2" cy="198.2" r="5.3"/>
<circle cx="48" cy="208.9" r="5.3"/>
<circle cx="58.6" cy="208.9" r="5.3"/>
<circle cx="69.3" cy="208.9" r="5.3"/>
<circle cx="79.9" cy="208.9" r="5.3"/>
<circle cx="101.3" cy="208.9" r="5.3"/>
<circle cx="111.9" cy="208.9" r="5.3"/>
<circle cx="122.6" cy="208.9" r="5.3"/>
<circle cx="133.2" cy="208.9" r="5.3"/>
<circle cx="58.6" cy="219.5" r="5.3"/>
<circle cx="69.3" cy="219.5" r="5.3"/>
<circle cx="101.3" cy="224.9" r="5.3"/>
<circle cx="111.9" cy="219.5" r="5.3"/>
<circle cx="122.6" cy="219.5" r="5.3"/>
<circle cx="133.2" cy="219.5" r="5.3"/>
<circle cx="69.3" cy="230.2" r="5.3"/>
<circle cx="79.9" cy="230.2" r="5.3"/>
<circle cx="90.6" cy="230.2" r="5.3"/>
<circle cx="101.3" cy="230.2" r="5.3"/>
<circle cx="111.9" cy="230.2" r="5.3"/>
<circle cx="122.6" cy="230.2" r="5.3"/>
<circle cx="133.2" cy="230.2" r="5.3"/>
<circle cx="143.9" cy="230.2" r="5.3"/>
<circle cx="154.6" cy="230.2" r="5.3"/>
<circle cx="165.2" cy="230.2" r="5.3"/>
<circle cx="101.3" cy="240.8" r="5.3"/>
<circle cx="111.9" cy="240.8" r="5.3"/>
<circle cx="122.6" cy="240.8" r="5.3"/>
<circle cx="133.2" cy="240.8" r="5.3"/>
<circle cx="143.9" cy="240.8" r="5.3"/>
<circle cx="154.6" cy="240.8" r="5.3"/>
<circle cx="175.9" cy="240.8" r="5.3"/>
<circle cx="186.5" cy="240.8" r="5.3"/>
<circle cx="197.2" cy="240.8" r="5.3"/>
<circle cx="207.9" cy="240.8" r="5.3"/>
<circle cx="218.5" cy="240.8" r="5.3"/>
<circle cx="229.2" cy="240.8" r="5.3"/>
<circle cx="239.8" cy="240.8" r="5.3"/>
<circle cx="37.3" cy="251.5" r="5.3"/>
<circle cx="101.3" cy="251.5" r="5.3"/>
<circle cx="133.2" cy="251.5" r="5.3"/>
<circle cx="143.9" cy="251.5" r="5.3"/>
<circle cx="175.9" cy="251.5" r="5.3"/>
<circle cx="186.5" cy="251.5" r="5.3"/>
<circle cx="197.2" cy="251.5" r="5.3"/>
<circle cx="207.9" cy="251.5" r="5.3"/>
<circle cx="218.5" cy="251.5" r="5.3"/>
<circle cx="229.2" cy="251.5" r="5.3"/>
<circle cx="239.8" cy="251.5" r="5.3"/>
<circle cx="250.5" cy="251.5" r="5.3"/>
<circle cx="16" cy="262.2" r="5.3"/>
<circle cx="101.3" cy="262.2" r="5.3"/>
<circle cx="111.9" cy="262.2" r="5.3"/>
<circle cx="122.6" cy="262.2" r="5.3"/>
<circle cx="133.2" cy="262.2" r="5.3"/>
<circle cx="143.9" cy="262.2" r="5.3"/>
<circle cx="186.5" cy="262.2" r="5.3"/>
<circle cx="197.2" cy="262.2" r="5.3"/>
<circle cx="218.5" cy="262.2" r="5.3"/>
<circle cx="229.2" cy="262.2" r="5.3"/>
<circle cx="250.5" cy="262.2" r="5.3"/>
<circle cx="90.6" cy="272.8" r="5.3"/>
<circle cx="101.3" cy="272.8" r="5.3"/>
<circle cx="111.9" cy="272.8" r="5.3"/>
<circle cx="122.6" cy="272.8" r="5.3"/>
<circle cx="133.2" cy="272.8" r="5.3"/>
<circle cx="143.9" cy="272.8" r="5.3"/>
<circle cx="186.5" cy="272.8" r="5.3"/>
<circle cx="207.9" cy="272.8" r="5.3"/>
<circle cx="229.2" cy="272.8" r="5.3"/>
<circle cx="239.8" cy="272.8" r="5.3"/>
<circle cx="250.5" cy="272.8" r="5.3"/>
<circle cx="261.2" cy="272.8" r="5.3"/>
<circle cx="90.6" cy="283.5" r="5.3"/>
<circle cx="101.3" cy="283.5" r="5.3"/>
<circle cx="122.6" cy="283.5" r="5.3"/>
<circle cx="143.9" cy="283.5" r="5.3"/>
<circle cx="186.5" cy="283.5" r="5.3"/>
<circle cx="197.2" cy="283.5" r="5.3"/>
<circle cx="207.9" cy="283.5" r="5.3"/>
<circle cx="218.5" cy="283.5" r="5.3"/>
<circle cx="229.2" cy="283.5" r="5.3"/>
<circle cx="261.2" cy="283.5" r="5.3"/>
<circle cx="90.6" cy="294.1" r="5.3"/>
<circle cx="101.3" cy="294.1" r="5.3"/>
<circle cx="111.9" cy="294.1" r="5.3"/>
<circle cx="122.6" cy="294.1" r="5.3"/>
<circle cx="133.2" cy="294.1" r="5.3"/>
<circle cx="143.9" cy="294.1" r="5.3"/>
<circle cx="165.2" cy="294.1" r="5.3"/>
<circle cx="186.5" cy="294.1" r="5.3"/>
<circle cx="197.2" cy="294.1" r="5.3"/>
<circle cx="207.9" cy="294.1" r="5.3"/>
<circle cx="218.5" cy="294.1" r="5.3"/>
<circle cx="261.2" cy="294.1" r="5.3"/>
<circle cx="111.9" cy="304.8" r="5.3"/>
<circle cx="122.6" cy="304.8" r="5.3"/>
<circle cx="133.2" cy="304.8" r="5.3"/>
<circle cx="143.9" cy="304.8" r="5.3"/>
<circle cx="186.5" cy="304.8" r="5.3"/>
<circle cx="197.2" cy="304.8" r="5.3"/>
<circle cx="207.9" cy="304.8" r="5.3"/>
<circle cx="218.5" cy="304.8" r="5.3"/>
<circle cx="271.8" cy="304.8" r="5.3"/>
</svg>
